<?xml version="1.0" encoding="iso-8859-1"?>
<!-- Uploaded to: SVG Repo, www.svgrepo.com, Generator: SVG Repo Mixer Tools -->
<!DOCTYPE svg PUBLIC "-//W3C//DTD SVG 1.1//EN" "http://www.w3.org/Graphics/SVG/1.1/DTD/svg11.dtd">
<svg fill="#000000" version="1.1" id="Capa_1" xmlns="http://www.w3.org/2000/svg" xmlns:xlink="http://www.w3.org/1999/xlink" 
	 width="800px" height="800px" viewBox="0 0 739.34 739.34"
	 xml:space="preserve">
<g>
	<g>
		<path d="M671.613,550.213c-0.328-1.006-32.922-102.904-32.922-325.654c0-30.131-6.632-59.346-19.718-86.834
			c-12.564-26.394-30.51-51.687-53.339-71.97C519.091,24.399,457.341,0,391.75,0h-44.444c-65.583,0-127.341,24.399-173.884,65.754
			c-22.829,20.283-40.774,44.765-53.339,71.159c-13.085,27.488-19.718,57.113-19.718,87.244c0,110.712-8.991,193.691-16.532,243.636
			c-8.172,54.105-16.45,82.51-16.524,82.777l-3.625,12.215l10.629,6.967c3.26,2.129,16.093,9.088,44.184,9.088
			c10.845,0,22.739-1.049,35.527-3.133c0.067,12.459-1.213,31.172-6.997,54.307l-8.217,32.848l31.262-13.004
			c1.266-0.529,27.503-11.5,58.862-28.984c4.421,5.434,9.192,10.658,14.313,15.623c25.88,25.076,58.281,41.504,93.474,47.809
			c3.32,5.523,6.379,10.666,9.148,15.311c3.632,6.096,6.766,11.359,9.49,15.832l14.537,23.893l14.537-23.893
			c2.725-4.48,5.865-9.742,9.49-15.84c2.791-4.689,5.88-9.877,9.237-15.459c34.864-6.416,66.953-22.785,92.625-47.652
			c5.129-4.965,9.899-10.189,14.313-15.623c31.359,17.477,57.604,28.455,58.862,28.984l31.262,13.002l-8.217-32.846
			c-5.784-23.135-7.064-41.84-6.997-54.301c12.787,2.084,24.682,3.143,35.527,3.143l0,0c28.091,0,40.923-6.953,44.184-9.082
			l10.935-7.145L671.613,550.213z M258.574,603.113c-7.465-8.59-13.889-18.059-19.062-28.219
			c-6.982-13.688-11.708-28.635-13.711-44.385c9.498,9.707,19.36,20.908,29.558,33.584c3.215,3.998,6.461,8.121,9.743,12.408
			c3.692,4.824,7.339,9.723,10.927,14.656c12.029,16.531,23.387,33.473,33.696,49.521
			C289.881,631.971,272.426,619.049,258.574,603.113z M499.545,574.902c-5.181,10.16-11.597,19.621-19.062,28.217
			c-13.599,15.646-30.682,28.383-50.079,37.092c10.153-15.795,21.318-32.424,33.123-48.68c3.67-5.055,7.406-10.078,11.188-15.021
			c3.186-4.16,6.342-8.172,9.461-12.064c9.988-12.432,19.65-23.463,28.962-33.049C511.082,546.826,506.4,561.467,499.545,574.902z
			 M511.589,486.23c-17.091,14.447-34.933,33.256-53.704,56.598c-3.372,4.191-6.767,8.516-10.197,12.996
			c-3.581,4.676-7.108,9.408-10.585,14.174c-20.834,28.545-39.644,58.102-54.619,82.621c-3.789,6.207-7.339,12.094-10.614,17.559
			c-0.662,1.109-1.325,2.211-1.965,3.281c-0.64-1.07-1.295-2.166-1.958-3.273c-3.26-5.441-6.803-11.314-10.577-17.5
			c-15.058-24.652-33.994-54.412-54.969-83.113c-3.372-4.615-6.796-9.207-10.272-13.748c-3.543-4.629-7.049-9.096-10.525-13.412
			c-18.891-23.439-36.837-42.301-54.024-56.732c-4.994-4.191-9.922-8.01-14.79-11.457c-5.069-3.588-10.063-6.779-15.006-9.572
			c-3.685-2.084-7.332-3.951-10.949-5.596c4.176-7.578,11.895-19.234,23.395-32.811c6.066-7.16,11.812-13.221,17.008-18.17
			c9.937-9.469,17.849-14.865,22.077-16.1c20.097-5.881,33.145-18.572,44.652-29.766c4.228-4.109,8.24-7.994,12.513-11.545
			c0.305-0.253,0.603-0.521,0.908-0.767c4.466-3.632,9.074-7.756,13.941-12.125c14.299-12.817,33.875-30.384,47.98-30.384
			l0.61,0.007l0.61-0.007c14.105,0,33.688,17.559,47.987,30.384c4.868,4.369,9.476,8.493,13.941,12.125
			c0.499,0.41,0.982,0.834,1.474,1.25c4.057,3.424,7.912,7.138,11.947,11.068c11.507,11.194,24.548,23.886,44.652,29.767
			c3.796,1.109,10.547,5.566,19.069,13.301c5.947,5.396,12.751,12.393,20.008,20.961c11.5,13.576,19.219,25.232,23.395,32.811
			c-3.833,1.74-7.696,3.736-11.604,5.961c-4.942,2.822-9.938,6.045-15.006,9.662C521.511,478.16,516.583,482.01,511.589,486.23z
			 M620.566,544.809c-13.599,0-29.505-2.047-47.295-6.08l-17.053-3.871l-3.401,17.156c-0.209,1.064-3.968,20.76-0.053,52.811
			c-7.197-3.572-15.311-7.764-23.818-12.453c12.706-24.152,19.435-51.061,19.435-78.98c0-4.123-0.156-8.225-0.446-12.297
			c10.041-6.975,19.554-11.879,28.516-14.67c8.708-2.725,14.283-10.682,14.201-20.291c-0.156-17.291-20.804-44.727-33.107-59.539
			c-12.476-15.035-36.54-41.17-57.471-47.295c-11.983-3.506-20.551-11.843-30.473-21.497c-4.86-4.727-9.893-9.625-15.69-14.336
			c-3.818-3.104-8.121-5.932-12.677-10.019c-19.419-17.403-43.58-38.043-70.719-38.043c-0.201,0-0.41,0-0.61,0
			c-0.201,0-0.41,0-0.61,0c-27.131,0-51.292,20.64-70.712,38.05c-4.556,4.086-8.858,7.428-12.684,10.532
			c-5.798,4.712-10.83,9.349-15.69,14.075c-9.922,9.654-18.489,17.857-30.473,21.37c-20.938,6.126-44.995,32.201-57.47,47.236
			c-12.296,14.812-32.952,42.219-33.108,59.51c-0.089,9.602,5.486,17.551,14.202,20.268c8.739,2.732,18.013,7.465,27.786,14.172
			c-0.312,4.236-0.477,8.5-0.477,12.789c0,27.92,6.729,54.826,19.435,78.98c-8.515,4.689-16.621,8.881-23.818,12.453
			c3.915-32.051,0.164-51.746-0.052-52.811l-3.402-17.158l-17.052,3.871c-17.79,4.035-33.696,6.082-47.295,6.082
			c-5.821,0-10.555-0.381-14.321-0.908c3.35-14.18,8.254-37.479,13.16-69.76c7.793-51.27,17.075-136.228,17.075-249.62
			c0.007-103.269,95.513-187.319,212.91-187.319h44.444c117.396,0,212.902,84.05,212.902,187.305
			c0,179.006,20.439,281.484,29.93,319.402C630.868,544.43,626.231,544.809,620.566,544.809z"/>
		<polygon points="420.177,371.35 404.39,377.713 404.359,377.721 388.609,384.07 410.143,437.477 425.923,431.111 441.71,424.748 
			425.469,384.479 		"/>
		<polygon points="335.188,377.609 319.662,371.35 314.511,384.113 298.128,424.748 313.908,431.111 329.695,437.477 
			351.221,384.07 335.441,377.713 		"/>
		<path d="M563.021,207.833c-59.979-2.255-93.228,17.067-108.598,30.004c-2.896,2.188-5.509,4.689-7.764,7.443
			c-1.802,2.01-2.754,3.335-2.955,3.625l0.208,0.142c-0.469,0.722-0.923,1.451-1.347,2.196c-5.575,9.855-6.535,21.184-2.628,31.083
			c5.479,13.882,19.666,22.851,36.146,22.851l0,0c5.939,0,11.835-1.139,17.514-3.379c21.929-8.657,33.54-31.485,25.881-50.883
			c-1.809-4.578-4.562-8.62-8.039-11.984c18.117-4.518,36.465-5.181,50.593-4.652c7.294,0.268,13.45-5.426,13.726-12.736
			C576.025,214.25,570.324,208.101,563.021,207.833z M481.093,270.142c-1.66,0.655-3.394,0.998-5.009,0.998l0,0
			c-2.844,0-4.325-1.027-4.489-1.325c-0.186-0.759,1.452-4.637,6.722-6.721c1.66-0.655,3.395-0.998,5.017-0.998
			c2.852,0,4.317,1.027,4.488,1.325C488.008,264.18,486.363,268.058,481.093,270.142z"/>
		<path d="M295.91,244.983l0.208-0.141c-0.275-0.395-1.288-1.794-3.141-3.856c-2.062-2.486-4.406-4.756-6.997-6.773
			c-4.362-3.744-10.25-8.061-17.894-12.251c-24.474-13.413-55.185-19.539-91.285-18.184c-7.31,0.275-13.003,6.416-12.736,13.718
			c0.275,7.31,6.431,12.989,13.726,12.736c20.767-0.782,37.462,1.37,50.585,4.66c-3.468,3.364-6.223,7.398-8.031,11.976
			c-7.659,19.397,3.953,42.226,25.881,50.883c5.679,2.24,11.574,3.379,17.514,3.379c16.472,0,30.667-8.977,36.145-22.859
			c3.908-9.899,2.948-21.228-2.627-31.083C296.833,246.435,296.379,245.705,295.91,244.983z M263.74,267.083
			c-1.623,0-3.357-0.35-5.017-1.005c-5.27-2.077-6.907-5.955-6.721-6.729c0.164-0.29,1.63-1.317,4.481-1.317
			c1.623,0,3.357,0.35,5.017,1.005c5.27,2.084,6.908,5.962,6.722,6.729C268.057,266.062,266.583,267.083,263.74,267.083z"/>
	</g>
</g>
</svg>